<svg xmlns="http://www.w3.org/2000/svg" viewBox="0 0 512 512">
  <rect width="512" height="512" rx="100" fill="#111827" />
  <path d="M256 320c35.3 0 64-28.7 64-64V128c0-35.3-28.7-64-64-64s-64 28.7-64 64v128c0 35.3 28.7 64 64 64zm-40-192c0-22.1 17.9-40 40-40s40 17.9 40 40v128c0 22.1-17.9 40-40 40s-40-17.9-40-40V128z" fill="#3b82f6" />
  <path d="M384 256c0 70.7-57.3 128-128 128s-128-57.3-128-128H96c0 82 61.8 149.3 140 158.5V448h40v-33.5c78.2-9.2 140-76.5 140-158.5h-32z" fill="#3b82f6" />
</svg>
